<svg width="16" height="16" viewBox="0 0 16 16" fill="none" xmlns="http://www.w3.org/2000/svg">
<g clip-path="url(#clip0_2831_1940)">
<path d="M13.1632 3.15505C12.0644 1.42457 10.2504 0.451172 8.20971 0.451172C6.18645 0.451172 4.3725 1.42457 3.23878 3.15505C2.10505 4.84949 1.84343 7.01259 2.5411 8.90531C2.73296 9.41004 3.02947 9.93279 3.41319 10.4015L7.82598 15.7732C7.93064 15.8813 8.03529 15.9534 8.19226 15.9534C8.34924 15.9534 8.45389 15.8813 8.55854 15.7732L12.9888 10.4015C13.3725 9.93279 13.6865 9.42806 13.8609 8.90531C14.5585 7.01259 14.2969 4.84949 13.1632 3.15505ZM8.20971 9.53622C6.70971 9.53622 5.47133 8.25638 5.47133 6.70615C5.47133 5.15593 6.70971 3.87609 8.20971 3.87609C9.70971 3.87609 10.9481 5.15593 10.9481 6.70615C10.9481 8.25638 9.72715 9.53622 8.20971 9.53622Z" fill="#BDBDBD"/>
</g>
<defs>
<clipPath id="clip0_2831_1940">
<rect width="15" height="15.5023" fill="white" transform="translate(0.701172 0.451172)"/>
</clipPath>
</defs>
</svg>
