<svg width="20" height="20" viewBox="0 0 20 20" fill="none" xmlns="http://www.w3.org/2000/svg">
<path d="M16.6164 3.48837C15.1512 1.25581 12.7326 0 10.0117 0C7.31403 0 4.89542 1.25581 3.3838 3.48837C1.87217 5.67442 1.52333 8.46512 2.45356 10.907C2.70938 11.5581 3.10473 12.2326 3.61635 12.8372L9.50008 19.7674C9.63961 19.907 9.77915 20 9.98845 20C10.1978 20 10.3373 19.907 10.4768 19.7674L16.3838 12.8372C16.8954 12.2326 17.314 11.5814 17.5466 10.907C18.4768 8.46512 18.128 5.67442 16.6164 3.48837ZM10.0117 11.7209C8.0117 11.7209 6.36054 10.0698 6.36054 8.06977C6.36054 6.06977 8.0117 4.4186 10.0117 4.4186C12.0117 4.4186 13.6629 6.06977 13.6629 8.06977C13.6629 10.0698 12.035 11.7209 10.0117 11.7209Z" fill="#664EF9"/>
</svg>
