<svg width="405" height="346" viewBox="0 0 405 346" fill="none" xmlns="http://www.w3.org/2000/svg">
<mask id="mask0_2831_1782" style="mask-type:alpha" maskUnits="userSpaceOnUse" x="0" y="0" width="405" height="346">
<rect y="0.392578" width="405" height="345" rx="10" fill="url(#paint0_linear_2831_1782)"/>
</mask>
<g mask="url(#mask0_2831_1782)">
<path d="M260.837 520.723C254.67 526.889 245.141 526.889 238.974 520.723L138.632 420.941C132.465 414.774 132.465 405.245 138.632 399.078L351.089 186.06C357.255 179.894 366.785 179.894 372.951 186.06L473.294 286.403C479.46 292.569 479.46 302.099 473.294 308.265L260.837 520.723Z" fill="#FFC200"/>
<path d="M253.997 332.015C262.309 323.689 268.691 316.585 268.253 316.147C267.815 315.71 260.722 322.105 252.41 330.431C244.098 338.756 237.716 345.86 238.154 346.298C238.592 346.735 245.685 340.341 253.997 332.015Z" fill="#FFDA00"/>
<path d="M252.243 331.978C260.577 340.283 267.688 346.661 268.125 346.222C268.562 345.783 262.16 338.695 253.825 330.39C245.491 322.084 238.38 315.707 237.943 316.146C237.506 316.584 243.908 323.673 252.243 331.978Z" fill="#FFDA00"/>
<path d="M355.68 158.803C355.68 180.665 354.559 198.603 353.438 198.603C352.316 198.603 351.195 180.665 351.195 158.803C351.195 136.94 352.316 119.002 353.438 119.002C354.559 119.002 355.68 136.94 355.68 158.803Z" fill="#FFDA00"/>
<path d="M353.435 161.045C375.417 161.045 393.236 160.041 393.236 158.803C393.236 157.564 375.417 156.561 353.435 156.561C331.454 156.561 313.635 157.564 313.635 158.803C313.635 160.041 331.454 161.045 353.435 161.045Z" fill="#FFDA00"/>
</g>
<defs>
<linearGradient id="paint0_linear_2831_1782" x1="137.265" y1="111.507" x2="420.779" y2="204.081" gradientUnits="userSpaceOnUse">
<stop stop-color="#FFD54F"/>
<stop offset="1" stop-color="#FEC100"/>
</linearGradient>
</defs>
</svg>
