<svg version="1.1" id="Capa_1" xmlns="http://www.w3.org/2000/svg" xmlns:xlink="http://www.w3.org/1999/xlink" x="0px" y="0px" viewBox="0 0 128 128" style="enable-background:new 0 0 295.996 295.996;" xml:space="preserve" width="128" height="128" fill="#664ef9" ><g><path d="M64 0C28.71 0 0 28.71 0 64c0 35.29 28.71 64 64 64c35.29 0 64 -28.71 64 -64C128 28.71 99.29 0 64 0zM64 121.081c-15.679 0 -29.9 -6.355 -40.227 -16.623c-4.124 -4.1 -7.624 -8.826 -10.35 -14.02C9.272 82.53 6.919 73.535 6.919 64C6.919 32.525 32.525 6.919 64 6.919c14.929 0 28.535 5.764 38.717 15.179c5.279 4.881 9.639 10.743 12.782 17.296c3.576 7.455 5.581 15.8 5.581 24.606C121.081 95.475 95.475 121.081 64 121.081z"/><path d="M70.763 81.128c7.591 1.587 14.41 5.855 19.2 12.017l5.462 -4.247c-5.796 -7.455 -14.052 -12.62 -23.246 -14.543c-14.787 -3.09 -30.334 2.617 -39.606 14.543l5.463 4.247C45.698 83.291 58.544 78.573 70.763 81.128z"/><path cx="98.666" cy="114.998" r="16" d="M49.586 49.73A6.919 6.919 0 0 1 42.667 56.649A6.919 6.919 0 0 1 35.748 49.73A6.919 6.919 0 0 1 49.586 49.73z"/><path cx="197.666" cy="114.998" r="16" d="M92.397 49.73A6.919 6.919 0 0 1 85.478 56.649A6.919 6.919 0 0 1 78.559 49.73A6.919 6.919 0 0 1 92.397 49.73z"/></g></svg>