<svg width="15" height="17" viewBox="0 0 15 17" fill="none" xmlns="http://www.w3.org/2000/svg">
<path d="M7.08751 0.454405C5.82648 0.471438 3.11314 0.678443 1.59532 2.06918C0.468579 3.18937 0.0748758 4.84082 0.0290201 6.88599C-0.0102847 8.92329 -0.0561402 12.749 3.63196 13.7912V15.3765C3.63196 15.3765 3.60707 16.0119 4.02632 16.1429C4.54383 16.3067 4.83862 15.816 5.32993 15.292L6.24704 14.257C8.7691 14.4666 10.7016 13.9825 10.9243 13.9104C11.4353 13.7466 14.3183 13.3791 14.7899 9.55282C15.2747 5.60203 14.5541 3.11272 13.2571 1.98598L13.2505 1.98467C12.8575 1.62438 11.2853 0.477988 7.76748 0.464887C7.76748 0.464887 7.50807 0.44851 7.08751 0.454405ZM7.1314 1.56608C7.48842 1.56411 7.70787 1.57918 7.70787 1.57918C10.6819 1.58573 12.1041 2.48319 12.4382 2.78453C13.5322 3.72064 14.0942 5.9656 13.6829 9.26458C13.2898 12.4614 10.9512 12.6645 10.5188 12.802C10.3354 12.861 8.63219 13.2802 6.48877 13.1427C6.48877 13.1427 4.89103 15.0693 4.39317 15.5671C4.31456 15.6523 4.22284 15.6785 4.16389 15.6654C4.07873 15.6457 4.05252 15.5409 4.05907 15.3968L4.07218 12.764C0.946788 11.8993 1.13021 8.6357 1.16296 6.9325C1.20227 5.22929 1.52326 3.83266 2.47312 2.88934C3.75512 1.72985 6.05969 1.57263 7.13075 1.56608H7.1314ZM7.36723 3.26929C7.34145 3.2692 7.31591 3.2742 7.29207 3.28401C7.26823 3.29381 7.24656 3.30823 7.22831 3.32642C7.21005 3.34462 7.19556 3.36624 7.18568 3.39005C7.17579 3.41385 7.17071 3.43938 7.17071 3.46516C7.17071 3.51728 7.19141 3.56726 7.22827 3.60412C7.26512 3.64097 7.31511 3.66168 7.36723 3.66168C7.85425 3.65239 8.33828 3.73965 8.7914 3.91842C9.24451 4.09719 9.65773 4.36394 10.0072 4.70326C10.7212 5.39764 11.0691 6.32786 11.0822 7.54631C11.0822 7.57211 11.0873 7.59767 11.0972 7.62151C11.107 7.64536 11.1215 7.66702 11.1398 7.68527C11.158 7.70352 11.1797 7.71799 11.2035 7.72787C11.2274 7.73775 11.2529 7.74283 11.2787 7.74283V7.73694C11.3308 7.73694 11.3808 7.71623 11.4177 7.67937C11.4545 7.64252 11.4752 7.59253 11.4752 7.54041C11.4995 6.9674 11.4069 6.39544 11.2031 5.85937C10.9993 5.32329 10.6884 4.83432 10.2895 4.42223C9.51 3.66233 8.52607 3.26929 7.36658 3.26929H7.36723ZM4.77704 3.72129C4.63773 3.70144 4.4958 3.72913 4.37417 3.7999H4.36631C4.09772 3.95712 3.8501 4.15364 3.61427 4.41568C3.4374 4.6253 3.33849 4.83427 3.31228 5.03735C3.29687 5.15645 3.30805 5.27749 3.34504 5.39175L3.35814 5.3983C3.56005 5.9919 3.82352 6.56274 4.14424 7.10151C4.55996 7.85604 5.07072 8.55416 5.66402 9.17877L5.68367 9.20497L5.70988 9.22462L5.72953 9.24428L5.74918 9.26393C6.37624 9.85874 7.07621 10.3716 7.83234 10.7903C8.69704 11.2619 9.22242 11.4847 9.53686 11.5764V11.5829C9.62857 11.6091 9.71242 11.6222 9.79758 11.6222C10.066 11.6026 10.3201 11.4938 10.5195 11.313C10.775 11.0837 10.978 10.8296 11.1287 10.561V10.5544C11.2794 10.2728 11.227 10.0035 11.0108 9.82009C10.5751 9.43896 10.1034 9.1011 9.60236 8.81127C9.26827 8.62784 8.92763 8.73921 8.79006 8.92263L8.49528 9.29537C8.34461 9.47879 8.06948 9.45259 8.06948 9.45259L8.06161 9.45914C6.01776 8.93508 5.47405 6.86568 5.47405 6.86568C5.47405 6.86568 5.44784 6.58399 5.63782 6.43988L6.00466 6.14509C6.18153 6.00097 6.306 5.66033 6.11603 5.32624C5.82658 4.82493 5.48869 4.3532 5.1072 3.91782C5.02422 3.8149 4.90707 3.74517 4.77704 3.72129ZM7.70722 4.30431C7.6551 4.30449 7.60518 4.32536 7.56845 4.36234C7.53171 4.39932 7.51117 4.44937 7.51135 4.50149C7.51152 4.55361 7.53239 4.60353 7.56937 4.64026C7.60635 4.677 7.6564 4.69754 7.70853 4.69736C8.3641 4.70874 8.98839 4.97966 9.44449 5.4507C9.65026 5.6777 9.80845 5.94363 9.90972 6.2328C10.011 6.52196 10.0533 6.82848 10.0341 7.13426C10.0342 7.18627 10.055 7.23609 10.0919 7.2728C10.1287 7.30952 10.1786 7.33013 10.2306 7.33013L10.2371 7.33799C10.263 7.33799 10.2886 7.33289 10.3125 7.32297C10.3364 7.31305 10.3581 7.29852 10.3763 7.2802C10.3946 7.26188 10.4091 7.24014 10.4189 7.21622C10.4287 7.1923 10.4337 7.16667 10.4337 7.14081C10.4533 6.36127 10.2109 5.70619 9.73273 5.18212C9.25452 4.65806 8.58633 4.36327 7.73473 4.30431C7.72557 4.30367 7.71638 4.30367 7.70722 4.30431ZM8.02821 5.36489C8.00192 5.36411 7.97575 5.36852 7.95117 5.37787C7.92659 5.38721 7.9041 5.4013 7.88497 5.41934C7.86584 5.43737 7.85045 5.459 7.83967 5.48298C7.8289 5.50697 7.82296 5.53284 7.82218 5.55912C7.82141 5.5854 7.82582 5.61158 7.83516 5.63615C7.8445 5.66073 7.85859 5.68323 7.87663 5.70236C7.89467 5.72149 7.91629 5.73688 7.94028 5.74765C7.96426 5.75843 7.99013 5.76437 8.01641 5.76514C8.66494 5.7979 8.97938 6.12544 9.01869 6.80017C9.02039 6.85115 9.04184 6.89947 9.07851 6.93492C9.11519 6.97037 9.16421 6.99017 9.21521 6.99014H9.22176C9.24815 6.98932 9.27411 6.98319 9.29808 6.97212C9.32205 6.96104 9.34354 6.94525 9.36128 6.92568C9.37901 6.90612 9.39262 6.88318 9.40129 6.85824C9.40996 6.8333 9.41351 6.80686 9.41174 6.78052C9.36588 5.90271 8.88767 5.41074 8.03607 5.36489C8.03345 5.36484 8.03083 5.36484 8.02821 5.36489Z" fill="currentColor"/>
</svg>
