<svg width="16" height="21" viewBox="0 0 16 21" fill="none" xmlns="http://www.w3.org/2000/svg">
<path d="M13.625 8H13V5.5C13 2.7425 10.7575 0.5 8 0.5C5.2425 0.5 3 2.7425 3 5.5V8H2.375C1.34167 8 0.5 8.84083 0.5 9.875V18.625C0.5 19.6592 1.34167 20.5 2.375 20.5H13.625C14.6583 20.5 15.5 19.6592 15.5 18.625V9.875C15.5 8.84083 14.6583 8 13.625 8ZM4.66667 5.5C4.66667 3.66167 6.16167 2.16667 8 2.16667C9.83833 2.16667 11.3333 3.66167 11.3333 5.5V8H4.66667V5.5ZM8.83333 14.435V16.3333C8.83333 16.7933 8.46083 17.1667 8 17.1667C7.53917 17.1667 7.16667 16.7933 7.16667 16.3333V14.435C6.67083 14.1458 6.33333 13.6142 6.33333 13C6.33333 12.0808 7.08083 11.3333 8 11.3333C8.91917 11.3333 9.66667 12.0808 9.66667 13C9.66667 13.6142 9.32917 14.1458 8.83333 14.435Z" fill="currentColor"/>
</svg>
